# AST/ASF file generated using VICON BodyLanguage
# -----------------------------------------------
:version 1.10
:name VICON
:units
  mass 1.0
  length 0.45
  angle deg
:documentation
   .ast/.asf automatically generated from VICON data using
   VICON BodyBuilder and BodyLanguage model FoxedUp or BRILLIANT.MOD
:root
   order TX TY TZ RX RY RZ
   axis XYZ
   position 0 0 0  
   orientation 0 0 0 
:bonedata
  begin
     id 1 
     name lhipjoint
     direction 0.630082 -0.636569 0.44472 
     length 2.82754 
     axis 0 0 0  XYZ
  end
  begin
     id 2 
     name lfemur
     direction 0.34202 -0.939693 0  
     length 7.26371  
     axis 0 0 20  XYZ
    dof rx ry rz
    limits (-160.0 20.0)
           (-70.0 70.0)
           (-60.0 70.0)
  end
  begin
     id 3 
     name ltibia
     direction 0.34202 -0.939693 0   
     length 7.88616   
     axis 0 0 20   XYZ
    dof rx
    limits (-10.0 170.0)
  end
  begin
     id 4 
     name lfoot
     direction 0.0603448 -0.165796 0.984312   
     length 1.77861   
     axis -90 7.62852e-016 20   XYZ
    dof rx rz
    limits (-45.0 90.0)
           (-70.0 20.0)
  end
  begin
     id 5 
     name ltoes
     direction 1.53577e-011 -4.21876e-011 1   
     length 0.902235   
     axis -90 7.62852e-016 20   XYZ
    dof rx
    limits (-90.0 20.0)
  end
  begin
     id 6 
     name rhipjoint
     direction -0.656778 -0.61817 0.431866   
     length 2.9117  
     axis 0 0 0  XYZ 
  end
  begin
     id 7 
     name rfemur
     direction -0.34202 -0.939693 0   
     length 6.81603   
     axis 0 0 -20   XYZ
    dof rx ry rz
    limits (-160.0 20.0)
           (-70.0 70.0)
           (-70.0 60.0)
  end
  begin
     id 8 
     name rtibia
     direction -0.34202 -0.939693 0   
     length 8.05997   
     axis 0 0 -20   XYZ
    dof rx
    limits (-10.0 170.0)
 end
 begin
     id 9 
     name rfoot
     direction -0.0862404 -0.236944 0.967688   
     length 1.84899  
     axis -90 -7.62852e-016 -20   XYZ
    dof rx rz
    limits (-45.0 90.0)
           (-20.0 70.0)
  end
  begin
     id 10 
     name rtoes
     direction -1.53561e-011 -4.21798e-011 1   
     length 0.931579   
     axis -90 -7.62852e-016 -20   XYZ
    dof rx
    limits (-90.0 20.0)
  end
  begin
     id 11 
     name lowerback
     direction -0.0110203 0.991769 -0.127564   
     length 2.05686   
     axis 0 0 0   XYZ
    dof rx ry rz
    limits (-20.0 45.0)
           (-30.0 30.0)
           (-30.0 30.0)
  end
  begin
     id 12 
     name upperback
     direction 0.0109719 0.99993 -0.00432479   
     length 2.06234   
     axis 0 0 0   XYZ
    dof rx ry rz
    limits (-20.0 45.0)
           (-30.0 30.0)
           (-30.0 30.0)
  end
  begin
     id 13 
     name thorax
     direction 0.0173308 0.998351 0.0547306   
     length 2.09856   
     axis 0 0 0   XYZ
    dof rx ry rz
    limits (-20.0 45.0)
           (-30.0 30.0)
           (-30.0 30.0)
  end
  begin
     id 14 
     name lowerneck
     direction -0.0311736 0.989033 0.144366   
     length 1.98151   
     axis 0 0 0   XYZ
    dof rx ry rz
    limits (-20.0 45.0)
           (-30.0 30.0)
           (-30.0 30.0)
  end
  begin
     id 15 
     name upperneck
     direction 0.0421057 0.975772 -0.214698   
     length 2.01457   
     axis 0 0 0   XYZ
    dof rx ry rz
    limits (-20.0 45.0)
           (-30.0 30.0)
           (-30.0 30.0)
  end
  begin
     id 16
     name head
     direction 0.0136911 0.995958 -0.0887718  
     length 2.03562  
     axis 0 0 0   XYZ
    dof rx ry rz
    limits (-20.0 45.0)
           (-30.0 30.0)
           (-30.0 30.0)
  end
  begin
     id 17 
     name lclavicle
     direction 0.915335 0.396201 0.0720134  
     length 4.16217  
     axis 0 0 0   XYZ
    dof ry rz
    limits (-20.0 10.0)
           (0.0 20.0)
  end
  begin
     id 18 
     name lhumerus
     direction 1 -4.48965e-011 6.383e-018   
     length 4.93042   
     axis -180 -30 -90   XYZ
    dof rx ry rz
    limits (-60.0 90.0)
           (-90.0 90.0)
           (-90.0 90.0)
  end
  begin
     id 19
     name lradius
     direction 1 -4.48972e-011 8.8689e-027   
     length 3.68177   
     axis -180 -30 -90   XYZ
    dof rx
    limits (-10.0 170.0)
  end
  begin
     id 20
     name lwrist
     direction 1 -4.48953e-011 1.17971e-026   
     length 1.84089   
     axis -7.69454e-015 90 90   XYZ
    dof ry
    limits (-180.0 0.0)
 end
  begin
     id 21 
     name lhand
     direction 1 -4.49027e-011 2.35802e-026   
     length 0.721479   
     axis -1.50533e-014 90 90   XYZ
    dof rx rz
    limits (-90.0 90.0)
           (-45.0 45.0)
  end
  begin
     id 22 
     name lfingers
     direction 1 -4.48915e-011 4.72027e-026   
     length 0.581675   
     axis -3.01059e-014 90 90   XYZ
    dof rx
    limits (0.0 90.0)
  end
  begin
     id 23
     name lthumb
     direction 0.707107 -6.34948e-011 0.707107   
     length 0.835172   
     axis -90 45 -5.12164e-014   XYZ
    dof rx rz
    limits (-45.0 45.0)
           (-45.0 45.0)
  end
  begin
     id 24 
     name rclavicle
     direction -0.882781 0.469197 0.0234974   
     length 3.95647  
     axis 0 0 0   XYZ 
    dof ry rz
    limits (-10.0 20.0)
           (-20.0 0.0)
  end
  begin
     id 25 
     name rhumerus
     direction -1 -4.48965e-011 -1.54906e-018  
     length 5.07905   
     axis -180 30 90   XYZ
    dof rx ry rz
    limits (-90.0 60.0)
           (-90.0 90.0)
           (-90.0 90.0)
  end
  begin
     id 26 
     name rradius
     direction -1 -4.48972e-011 5.47489e-027   
     length 3.54394   
     axis -180 30 90   XYZ
    dof rx
    limits (-10.0 170.0)
  end
  begin
     id 27 
     name rwrist
     direction -1 -4.48955e-011 1.17969e-026   
     length 1.77197   
     axis -7.69454e-015 -90 -90   XYZ
    dof ry
    limits (-180.0 0.0)
  end
  begin
     id 28
     name rhand
     direction -1 -4.48982e-011 2.35888e-026   
     length 0.681156   
     axis -1.50533e-014 -90 -90   XYZ
    dof rx rz
    limits (-90.0 90.0)
           (-45.0 45.0)
  end
  begin
     id 29
     name rfingers
     direction -1 -4.48955e-011 4.71877e-026   
     length 0.549165   
     axis -3.01059e-014 -90 -90   XYZ
    dof rx
    limits (0.0 90.0)
  end
  begin
     id 30
     name rthumb
     direction -0.707107 -6.3491e-011 0.707107   
     length 0.788495   
     axis -90 -45 5.12164e-014   XYZ
    dof rx rz
    limits (-45.0 45.0)
           (-45.0 45.0)
  end
:hierarchy
  begin
    root lhipjoint rhipjoint lowerback
    lhipjoint lfemur
    lfemur ltibia
    ltibia lfoot
    lfoot ltoes
    rhipjoint rfemur
    rfemur rtibia
    rtibia rfoot
    rfoot rtoes
    lowerback upperback
    upperback thorax
    thorax lowerneck lclavicle rclavicle
    lowerneck upperneck
    upperneck head
    lclavicle lhumerus
    lhumerus lradius
    lradius lwrist
    lwrist lhand lthumb
    lhand lfingers
    rclavicle rhumerus
    rhumerus rradius
    rradius rwrist
    rwrist rhand rthumb
    rhand rfingers
  end

#!OML:ASF H:\Bending\Project 1\Capture day 1\Session 1\Subject.ASF
:FULLY-SPECIFIED
:DEGREES
195
root -10.2648 18.0344 -16.7018 206.273 88.676 199.543
lowerback 8.70931 0.0628238 0.515218
upperback -1.99313 0.299959 2.06757
thorax -6.9986 0.180422 1.83774
lowerneck -24.683 -3.6996 -6.13442
upperneck 25.918 -3.92507 4.04996
head 12.9995 -1.70624 1.90081
rclavicle 4.96962e-016 -4.77083e-015
rhumerus 3.3459 12.573 -83.5253
rradius 78.3132
rwrist 6.82844
rhand -17.1171 -30.9945
rfingers 7.12502
rthumb 9.12231 -60.7773
lclavicle 4.96962e-016 -4.77083e-015
lhumerus 9.86965 -17.8718 89.2092
lradius 74.5031
lwrist 40.2022
lhand -34.2701 30.6016
lfingers 7.12502
lthumb -7.44033 60.4508
rfemur 2.75931 -6.19445 14.0449
rtibia 1.11319e-014
rfoot -7.80067 -17.2202
rtoes -3.17792
lfemur -14.8064 -4.81268 -14.7865
ltibia 27.0096
lfoot -20.7222 9.41258
ltoes -30.5851
196
root -10.2753 18.0367 -16.7075 208.42 88.6379 201.603
lowerback 8.77618 0.034347 0.628422
upperback -1.9515 0.276086 2.07548
thorax -6.99155 0.164191 1.78566
lowerneck -24.7924 -3.7003 -6.13926
upperneck 25.779 -3.94383 4.12825
head 12.9677 -1.70467 1.92581
rclavicle -4.27387e-015 2.8625e-014
rhumerus 4.53611 12.3036 -83.4275
rradius 77.1495
rwrist 7.0002
rhand -16.7348 -31.6053
rfingers 7.12502
rthumb 9.49123 -61.3716
lclavicle -4.27387e-015 2.8625e-014
lhumerus 10.9488 -17.8645 88.745
lradius 73.2513
lwrist 40.76
lhand -34.2786 30.8529
lfingers 7.12502
lthumb -7.44846 60.7018
rfemur 2.62028 -6.2154 14.1133
rtibia 0
rfoot -7.71553 -17.24
rtoes -3.36495
lfemur -14.9967 -4.87978 -14.7265
ltibia 27.0854
lfoot -20.6883 9.46587
ltoes -30.4889
197
root -10.2857 18.0387 -16.714 209.691 88.6096 202.829
lowerback 8.87067 0.0193271 0.741494
upperback -1.89781 0.268945 2.06327
thorax -6.98786 0.155604 1.71006
lowerneck -24.9054 -3.71841 -6.13893
upperneck 25.6735 -3.98806 4.20328
head 12.9517 -1.71376 1.9444
rclavicle -4.96962e-015 -6.36111e-015
rhumerus 5.72916 12.0452 -83.3002
rradius 75.9273
rwrist 7.19763
rhand -17.0328 -33.1354
rfingers 7.12502
rthumb 9.20373 -62.9146
lclavicle -4.96962e-015 -6.36111e-015
lhumerus 12.0633 -17.9187 88.2615
lradius 71.8831
lwrist 41.3848
lhand -34.3422 31.1822
lfingers 7.12502
lthumb -7.50984 61.0289
rfemur 2.52871 -6.23086 14.1491
rtibia -1.74931e-014
rfoot -7.65264 -17.2613
rtoes -3.42211
lfemur -15.1253 -4.97977 -14.6955
ltibia 27.1465
lfoot -20.6586 9.5403
ltoes -30.3865
198
root -10.2962 18.041 -16.7203 210.676 88.6151 203.791
lowerback 8.98901 0.0244137 0.826409
upperback -1.83878 0.285043 2.04038
thorax -6.99276 0.159293 1.63574
lowerneck -25.0178 -3.74415 -6.13771
upperneck 25.581 -4.04336 4.27833
head 12.9416 -1.72742 1.96099
rclavicle 3.67752e-015 -1.27222e-014
rhumerus 6.9136 11.8237 -83.1461
rradius 74.6682
rwrist 7.36128
rhand -16.6057 -33.4196
rfingers 7.12502
rthumb 9.61583 -63.1801
lclavicle 3.67752e-015 -1.27222e-014
lhumerus 13.1858 -18.0225 87.7672
lradius 70.4462
lwrist 42.0358
lhand -34.4446 31.5401
lfingers 7.12502
lthumb -7.60873 61.3832
rfemur 2.45639 -6.21733 14.1579
rtibia -1.11319e-014
rfoot -7.60731 -17.2783
rtoes -3.34955
lfemur -15.2039 -5.08576 -14.688
ltibia 27.1848
lfoot -20.6481 9.61722
ltoes -30.1656
199
root -10.3072 18.0437 -16.7255 211.815 88.6607 204.907
lowerback 9.12022 0.0451667 0.861906
upperback -1.78049 0.316761 2.01883
thorax -7.00634 0.172709 1.58836
lowerneck -25.1291 -3.76426 -6.13664
upperneck 25.4889 -4.08893 4.34875
head 12.9308 -1.73747 1.9776
rclavicle 1.19271e-015 -4.77083e-015
rhumerus 8.082 11.6643 -82.9686
rradius 73.3722
rwrist 7.43611
rhand -16.4762 -33.6281
rfingers 7.12502
rthumb 9.74076 -63.3828
lclavicle 1.19271e-015 -4.77083e-015
lhumerus 14.2929 -18.1418 87.2692
lradius 68.9847
lwrist 42.6715
lhand -34.5628 31.8419
lfingers 7.12502
lthumb -7.72283 61.6809
rfemur 2.37626 -6.16762 14.1502
rtibia -2.54444e-014
rfoot -7.57069 -17.286
rtoes -3.19481
lfemur -15.2572 -5.15694 -14.6943
ltibia 27.1982
lfoot -20.6562 9.66487
ltoes -29.7767
